<?xml version="1.0" encoding="utf-8"?>
<!-- Generator: Adobe Illustrator 21.1.0, SVG Export Plug-In . SVG Version: 6.00 Build 0)  -->
<svg version="1.1" id="Layer_1" xmlns="http://www.w3.org/2000/svg" xmlns:xlink="http://www.w3.org/1999/xlink" x="0px" y="0px"
	 viewBox="0 0 222 200.1" style="enable-background:new 0 0 222 200.1;" xml:space="preserve">
<style type="text/css">
	.st0{fill:#231F20;}
</style>
<g>
	<path class="st0" d="M118.2,120.1V111c0-7.5,4.4-13.5,12.3-13.5h8.3l0,0c0,0,0.3,0,0.7,0h0.2c0,0,0.1,0,0.1,0
		c3.1,0,12.8-0.7,12-11.7l0.1,0.1v-1.6l-0.1,0.1c0.8-11-8.8-11.8-12-11.7c0,0-0.1,0-0.1,0h-0.2c-0.4,0-0.7,0.1-0.7,0.1l0-0.1h-8.3
		c-7.9,0-12.3-6-12.3-13.5V50c0-7.5,4.4-13.5,12.3-13.5h9.1c7.9,0,14.2,6,14.2,13.5v5.3l0.1-0.1c-1,13.2,12.9,11.7,12.9,11.7
		l-0.1,0.1h6c7.1,0,12.8,5.5,12.8,12.2v11.6c0,6.7-5.7,12.2-12.8,12.2h-6l0.1,0.1c0,0-13.9-1.5-12.9,11.7l-0.1-0.1v5.3
		c0,7.5-6.4,13.5-14.2,13.5h-9.1C122.6,133.6,118.2,127.5,118.2,120.1"/>
	<path class="st0" d="M68.3,150.1v-5.3l-0.1,0.1c1-13.2-12.9-11.7-12.9-11.7l0.1-0.1h-6c-7.1,0-12.8-5.4-12.8-12.2v-11.6
		c0-6.7,5.7-12.2,12.8-12.2h6L55.2,97c0,0,13.9,1.5,12.9-11.7l0.1,0.1v-5.3c0-7.5,6.4-13.5,14.2-13.5h9.1c7.9,0,12.3,6.1,12.3,13.5
		v9.1c0,7.5-4.4,13.5-12.3,13.5h-8.2l0,0c0,0-0.3,0-0.7,0h-0.2c0,0-0.1,0-0.1,0c-3.1,0-12.8,0.7-12,11.7l-0.1-0.1v1.6l0.1-0.1
		c-0.8,11,8.8,11.8,12,11.7c0,0,0.1,0,0.1,0h0.2c0.4,0,0.7,0,0.7,0l0,0h8.2c7.9,0,12.3,6.1,12.3,13.5v9.1c0,7.5-4.4,13.5-12.3,13.5
		h-9.1C74.6,163.6,68.3,157.6,68.3,150.1"/>
</g>
</svg>
