<?xml version="1.0" encoding="utf-8"?>
<!-- Generator: Adobe Illustrator 20.1.0, SVG Export Plug-In . SVG Version: 6.00 Build 0)  -->
<svg version="1.1" id="Logos" xmlns="http://www.w3.org/2000/svg" xmlns:xlink="http://www.w3.org/1999/xlink" x="0px" y="0px"
	 viewBox="0 0 60 60" style="enable-background:new 0 0 60 60;" xml:space="preserve">
<style type="text/css">
	.st0{fill:#FF5722;}
	.st1{fill:#FFC107;}
	.st2{fill:#FFA000;}
	.st3{fill:#4CAF50;}
	.st4{opacity:0.1;}
</style>
<rect x="26" y="14" transform="matrix(-1 -4.183688e-11 4.183688e-11 -1 60 56)" class="st0" width="8" height="28"/>
<rect x="36" y="23" class="st1" width="8" height="19"/>
<polygon class="st2" points="36,23 44,31 44,42 36,42 "/>
<rect x="16" y="33" class="st3" width="8" height="9"/>
<path class="st4" d="M60,30c0,16.6-13.4,30-30,30S0,46.6,0,30S13.4,0,30,0S60,13.4,60,30z M30,1C14,1,1,14,1,30s13,29,29,29
	s29-13,29-29S46,1,30,1z"/>
</svg>
