<?xml version="1.0" encoding="utf-8"?>
<!-- Generator: Adobe Illustrator 22.0.1, SVG Export Plug-In . SVG Version: 6.00 Build 0)  -->
<svg version="1.1" id="Layer_1" xmlns="http://www.w3.org/2000/svg" xmlns:xlink="http://www.w3.org/1999/xlink" x="0px" y="0px"
	 viewBox="0 0 60 60" style="enable-background:new 0 0 60 60;" xml:space="preserve">
<style type="text/css">
	.st0{opacity:0.1;fill:#010101;enable-background:new    ;}
	.st1{fill:#4DAF4F;}
	.st2{fill:#378E43;}
	.st3{fill:#F15A2C;}
	.st4{fill:#FFFFFF;}
</style>
<path class="st0" d="M60,30c0,16.6-13.4,30-30,30S0,46.6,0,30S13.4,0,30,0S60,13.4,60,30z M30,1C14,1,1,14,1,30s13,29,29,29
	s29-13,29-29S46,1,30,1z"/>
<path class="st1" d="M23.4,43.2l5.2,5.2c0.8,0.8,2,0.8,2.8,0l17-17c0.8-0.8,0.8-2,0-2.8l-5.2-5.2L23.4,43.2z"/>
<rect x="25.3" y="16" transform="matrix(-0.7071 -0.7071 0.7071 -0.7071 29.9935 72.4238)" class="st2" width="9.3" height="28"/>
<path class="st1" d="M11.6,31.4l5.2,5.2l19.8-19.8l-5.2-5.2c-0.8-0.8-2-0.8-2.8,0l-17,17C10.8,29.4,10.8,30.6,11.6,31.4z"/>
<polygon class="st2" points="40.6,39.2 40.6,36.6 32.6,36.6 32.6,47.2 "/>
<circle class="st3" cx="36.6" cy="36.6" r="4"/>
<circle class="st4" cx="36.6" cy="36.6" r="2"/>
</svg>
