<svg id="Layer_1" data-name="Layer 1" xmlns="http://www.w3.org/2000/svg" viewBox="0 0 60 60"><defs><style>.cls-1{fill:#010101;opacity:0.1;isolation:isolate;}.cls-2{fill:#0bbcd4;}.cls-3{fill:#0297a7;}.cls-4{fill:#fec111;}</style></defs><title>verboice-icon</title><path class="cls-1" d="M261,421a30,30,0,1,1-30-30A30,30,0,0,1,261,421Zm-30-29a29,29,0,1,0,29,29A29,29,0,0,0,231,392Z" transform="translate(-201 -391)"/><path class="cls-2" d="M238,408h8.47l-9.2,26.55a2.15,2.15,0,0,1-2,1.45h-8.46a2.14,2.14,0,0,0,2-1.45Z" transform="translate(-201 -391)"/><path class="cls-3" d="M234.4,418.4l-5.6,16.15a2.14,2.14,0,0,1-2,1.45h8.46a2.15,2.15,0,0,0,2-1.45l3.42-9.86Z" transform="translate(-201 -391)"/><path class="cls-4" d="M224,408h-8.47l9.2,26.55a2.15,2.15,0,0,0,2,1.45h8.46a2.14,2.14,0,0,1-2-1.45Z" transform="translate(-201 -391)"/></svg>